# Blender 3.3.1
# www.blender.org
mtllib presentsBox.mtl
o Cube
v 2.300441 -0.023695 3.998639
v 2.300441 0.739514 3.998639
v 2.300441 -0.024281 3.235191
v 2.300441 0.740100 3.235191
v 3.063650 -0.023695 3.998639
v 3.063650 0.739514 3.998639
v 3.063650 -0.023695 3.235429
v 3.063650 0.739514 3.235429
v 2.750314 -0.023695 3.235429
v 2.587631 -0.023695 3.235429
v 2.587631 0.739514 3.235429
v 2.748267 0.739514 3.235429
v 2.750314 -0.023695 3.998639
v 2.587631 -0.023695 3.998639
v 2.587631 0.739514 3.998639
v 2.750314 0.739514 3.998639
v 2.300401 -0.023910 3.545516
v 2.300441 0.740100 3.545625
v 2.300441 0.739514 3.708071
v 3.063650 -0.023695 3.545387
v 3.063650 -0.023695 3.708071
v 3.063650 0.739514 3.708071
v 3.063650 0.739514 3.545387
v 2.587631 0.739514 3.708071
v 2.750314 0.739514 3.708071
v 2.748267 0.739514 3.545387
v 2.587631 0.739514 3.545387
v 2.300441 -0.023695 3.708071
v 2.583940 0.755949 3.542023
v 2.583940 0.755949 3.711713
v 2.753630 0.755949 3.711713
v 2.751469 0.755949 3.542023
v 3.080460 -0.040130 3.542023
v 2.284382 -0.040130 3.711713
v 2.583940 0.755949 4.014795
v 2.753630 0.755949 4.014795
v 2.753630 -0.040130 4.014795
v 2.583940 -0.040130 4.014795
v 2.583940 0.755949 3.218716
v 2.751469 0.755949 3.218716
v 2.753630 -0.040130 3.218716
v 2.583940 -0.040130 3.218716
v 2.284395 -0.040136 3.542147
v 3.080460 0.755949 3.711713
v 3.080460 0.755949 3.542023
v 2.284382 0.755949 3.542023
v 2.284382 0.755949 3.711713
v 3.080460 -0.040130 3.711713
v 2.674923 0.760280 3.524110
v 2.697493 0.788035 3.530771
v 2.692276 0.774914 3.520308
v 2.671359 0.747705 3.542519
v 2.715710 0.759323 3.529747
v 2.692013 0.799816 3.555485
v 2.729198 0.774482 3.531617
v 2.709873 0.739746 3.571386
v 2.744481 0.783625 3.548767
v 2.748986 0.750454 3.569584
v 2.691080 0.806076 3.587183
v 2.667258 0.807409 3.628168
v 2.760682 0.768476 3.558767
v 2.757190 0.792198 3.589057
v 2.771589 0.781726 3.597661
v 2.774277 0.762208 3.594016
v 2.728990 0.802624 3.591301
v 2.776201 0.773030 3.630467
v 2.766635 0.752521 3.618946
v 2.760053 0.790658 3.640461
v 2.719443 0.737219 3.611545
v 2.713475 0.805396 3.636873
v 2.764585 0.774606 3.664341
v 2.745486 0.790648 3.669490
v 2.760324 0.762731 3.668352
v 2.751797 0.750834 3.658824
v 2.740834 0.774598 3.693335
v 2.712692 0.740756 3.662687
v 2.689494 0.803364 3.663244
v 2.711431 0.791079 3.695531
v 2.709168 0.777794 3.709496
v 2.720414 0.758058 3.700407
v 2.673394 0.780681 3.711154
v 2.682338 0.768059 3.715024
v 2.667011 0.755642 3.704561
v 2.640961 0.767472 3.704340
v 2.667455 0.746431 3.688433
v 2.661766 0.796620 3.685425
v 2.639119 0.781262 3.699869
v 2.618245 0.769008 3.689113
v 2.677360 0.734694 3.617966
v 2.666168 0.738726 3.658721
v 2.607072 0.778447 3.674135
v 2.614585 0.752934 3.669959
v 2.625929 0.796813 3.660112
v 2.597453 0.782277 3.647218
v 2.584682 0.773382 3.625130
v 2.588268 0.763001 3.638388
v 2.606878 0.748281 3.629217
v 2.605394 0.792795 3.617251
v 2.633260 0.740340 3.639995
v 2.589348 0.765131 3.588413
v 2.593368 0.781033 3.583625
v 2.609986 0.748074 3.592100
v 2.642904 0.804395 3.597422
v 2.608273 0.761479 3.558535
v 2.612518 0.777811 3.549135
v 2.642241 0.740479 3.580153
v 2.625605 0.794235 3.563884
v 2.635566 0.754597 3.543538
v 2.653214 0.784230 3.529340
v 2.645875 0.768097 3.525763
vn -0.0000 -1.0000 -0.0007
vn -0.0002 0.2035 -0.9791
vn 0.0020 -1.0000 0.0012
vn -0.0000 -1.0000 -0.0000
vn -0.0002 0.2003 -0.9797
vn 0.1180 -0.3785 -0.9181
vn 0.0573 -0.8295 -0.5556
vn 0.2523 0.5400 -0.8030
vn 0.1193 -0.9048 -0.4087
vn 0.6601 0.2349 -0.7135
vn 0.5529 -0.4018 -0.7300
vn 0.4974 -0.6604 -0.5625
vn 0.1094 0.9758 -0.1895
vn 0.3114 0.9047 -0.2907
vn 0.6788 0.6448 -0.3513
vn 0.0447 0.9990 -0.0065
vn 0.6614 -0.6519 -0.3710
vn 0.5371 -0.8287 -0.1573
vn 0.2569 -0.9588 -0.1216
vn 0.3474 0.9377 0.0087
vn 0.8348 -0.5083 0.2117
vn 0.7798 0.5780 0.2405
vn 0.2576 -0.9610 0.1005
vn 0.2883 0.9465 0.1450
vn 0.6285 0.5829 0.5150
vn 0.0716 -0.9944 0.0782
vn 0.5923 -0.4435 0.6727
vn 0.4768 -0.7318 0.4870
vn 0.1948 0.9513 0.2390
vn 0.0247 0.9948 0.0991
vn 0.4026 0.6298 0.6643
vn 0.2850 -0.2622 0.9220
vn 0.1107 -0.9118 0.3955
vn 0.0867 -0.7023 0.7065
vn 0.0373 0.9421 0.3331
vn 0.0209 -0.9680 0.2501
vn 0.0898 0.7143 0.6940
vn -0.1756 0.7994 0.5746
vn -0.5371 0.1944 0.8208
vn -0.3420 -0.7423 0.5762
vn -0.1170 0.9779 0.1731
vn -0.2086 -0.9412 0.2656
vn -0.4294 0.7836 0.4490
vn -0.3474 -0.9220 0.1710
vn -0.5388 0.7855 0.3043
vn -0.8387 -0.1737 0.5162
vn -0.5469 -0.8138 0.1964
vn -0.8650 0.3506 0.3590
vn -0.6640 0.7429 0.0848
vn -0.2750 0.9605 0.0417
vn -0.9296 -0.3667 -0.0357
vn -0.2426 -0.9694 -0.0387
vn -0.6857 0.7278 -0.0093
vn -0.9667 0.1943 -0.1665
vn -0.4506 0.8806 -0.1469
vn -0.3441 0.9330 -0.1051
vn -0.3946 -0.8601 -0.3234
vn -0.5367 0.7589 -0.3689
vn -0.6041 -0.2737 -0.7484
vn -0.1878 -0.9275 -0.3234
vn -0.3745 0.7667 -0.5214
vn -0.0387 -0.9754 -0.2172
vn -0.2283 -0.7070 -0.6694
vn -0.0756 0.9778 -0.1953
vn -0.0627 0.8954 -0.4408
vn -0.0291 0.6302 -0.7759
vn -0.0000 1.0000 -0.0000
vn -0.0000 -0.0000 1.0000
vn -1.0000 -0.0000 -0.0000
vn 0.0002 -1.0000 -0.0002
vn 0.0008 -0.0000 -1.0000
vn 0.0020 1.0000 -0.0000
vn -0.0000 -0.0000 -1.0000
vn 1.0000 -0.0000 -0.0000
vn -1.0000 -0.0000 -0.0001
vn 0.9815 0.0026 0.1914
vn 0.2212 -0.0000 0.9752
vn -0.0000 -0.2164 0.9763
vn 0.2124 -0.0000 -0.9772
vn -0.9757 -0.2191 -0.0000
vn 0.9796 -0.0000 -0.2010
vn -0.1962 -0.0000 -0.9806
vn -0.0000 -0.2005 -0.9797
vn -0.9749 -0.0000 -0.2227
vn -0.2118 -0.0000 0.9773
vn -0.0006 -0.2113 -0.9774
vn 0.9803 -0.1978 -0.0000
vn -0.0000 -0.7130 0.7011
vn -0.9765 -0.0000 0.2156
vn -0.0000 0.2164 0.9763
vn -0.0000 -0.7010 -0.7131
vn 0.9815 -0.1912 -0.0000
vn 0.2368 0.9093 -0.3424
vn 0.2885 -0.1398 -0.9472
vn 0.2267 -0.8933 -0.3882
vn -0.2740 0.1860 0.9436
vn 0.3136 0.6931 -0.6490
vn 0.0484 -0.9961 -0.0742
vn 0.7457 0.5384 -0.3925
vn 0.0937 0.9952 -0.0286
vn 0.9271 0.1882 -0.3241
vn 0.9833 0.1536 -0.0975
vn 0.3181 -0.9452 -0.0742
vn 0.5915 0.8062 -0.0088
vn 0.7544 0.6530 0.0671
vn 0.8820 -0.4624 0.0907
vn 0.9196 -0.2200 0.3256
vn 0.6946 -0.6817 0.2296
vn 0.2983 0.9535 0.0436
vn 0.2977 -0.9521 0.0705
vn 0.6577 0.6770 0.3303
vn 0.7720 -0.0634 0.6324
vn 0.4367 0.7045 0.5594
vn 0.2660 -0.8957 0.3564
vn 0.1821 0.9537 0.2391
vn 0.4360 -0.1595 0.8857
vn 0.0342 -0.9936 0.1077
vn 0.0777 -0.8648 0.4960
vn 0.0708 0.3378 0.9385
vn -0.0135 0.8473 0.5310
vn -0.6326 -0.7731 -0.0475
vn -0.2159 -0.4594 0.8616
vn -0.0981 0.9796 0.1752
vn -0.2683 -0.8397 0.4721
vn -0.3008 0.8501 0.4323
vn -0.1911 -0.9481 0.2542
vn -0.5946 0.4015 0.6966
vn -0.4592 -0.6353 0.6209
vn -0.0905 -0.9932 0.0734
vn -0.7583 -0.4207 0.4980
vn -0.2014 0.9774 0.0637
vn -0.9003 0.1894 0.3918
vn -0.5062 0.8469 0.1631
vn -0.2813 -0.9594 -0.0182
vn -0.1383 -0.9901 -0.0231
vn -0.5827 -0.7646 -0.2756
vn -0.8691 0.0724 -0.4893
vn -0.8464 -0.0828 -0.5260
vn -0.3197 -0.9022 -0.2896
vn -0.5086 -0.5176 -0.6881
vn -0.4521 0.3842 -0.8050
vn -0.0476 0.9971 -0.0601
vn -0.1701 -0.7980 -0.5781
vn -0.1109 0.9656 -0.2353
vn -0.1238 0.9223 -0.3661
vn -0.0271 -0.9916 -0.1265
vn -0.1525 0.2796 -0.9479
vn -0.0947 -0.1436 -0.9851
vt 0.375000 1.000000
vt 0.375000 0.000000
vt 0.125000 0.750000
vt 0.875000 0.750000
vt 0.625000 1.000000
vt 0.625000 0.000000
vt 0.125000 0.500000
vt 0.375000 0.250000
vt 0.875000 0.500000
vt 0.625000 0.250000
vt 0.375000 0.750000
vt 0.625000 0.750000
vt 0.375000 0.500000
vt 0.625000 0.500000
vt 0.375000 0.397362
vt 0.272362 0.500000
vt 0.219073 0.500000
vt 0.375000 0.344073
vt 0.625000 0.344073
vt 0.780927 0.500000
vt 0.625000 0.397362
vt 0.727638 0.500000
vt 0.375000 0.852638
vt 0.272362 0.750000
vt 0.375000 0.905927
vt 0.219073 0.750000
vt 0.780927 0.750000
vt 0.625000 0.905927
vt 0.625000 0.852638
vt 0.727638 0.750000
vt 0.124987 0.601531
vt 0.375000 0.148469
vt 0.625000 0.148469
vt 0.875000 0.601531
vt 0.625000 0.095180
vt 0.875000 0.654820
vt 0.375000 0.601531
vt 0.375000 0.654820
vt 0.625000 0.654820
vt 0.625000 0.601531
vt 0.780927 0.654820
vt 0.727638 0.654820
vt 0.727638 0.601531
vt 0.780927 0.601531
vt 0.375000 0.095180
vt 0.125000 0.654820
vt 0.780927 0.601531
vt 0.780927 0.654820
vt 0.727638 0.654820
vt 0.727638 0.601531
vt 0.375000 0.601531
vt 0.375000 0.095180
vt 0.125000 0.654820
vt 0.780927 0.750000
vt 0.625000 0.905927
vt 0.625000 0.852638
vt 0.727638 0.750000
vt 0.375000 0.852638
vt 0.272362 0.750000
vt 0.375000 0.905927
vt 0.219073 0.750000
vt 0.625000 0.344073
vt 0.780927 0.500000
vt 0.625000 0.397362
vt 0.727638 0.500000
vt 0.375000 0.397362
vt 0.272362 0.500000
vt 0.219073 0.500000
vt 0.375000 0.344073
vt 0.125004 0.601531
vt 0.375000 0.148469
vt 0.625000 0.654820
vt 0.625000 0.601531
vt 0.625000 0.148469
vt 0.875000 0.601531
vt 0.875000 0.654820
vt 0.625000 0.095180
vt 0.375000 0.654820
vt 0.760627 0.398994
vt 0.720526 0.646190
vt 0.733796 0.528056
vt 0.773085 0.284705
vt 0.691535 0.406749
vt 0.725308 0.778027
vt 0.670677 0.524281
vt 0.670461 0.199015
vt 0.631403 0.596878
vt 0.596303 0.324351
vt 0.702937 0.899023
vt 0.578125 1.000000
vt 0.113773 0.933313
vt 0.896776 0.960847
vt 0.601758 0.476519
vt 0.556385 0.682648
vt 0.532562 0.580512
vt 0.537190 0.420530
vt 0.572227 0.805889
vt 0.480313 0.520122
vt 0.497744 0.339739
vt 0.454034 0.668189
vt 0.522290 0.126788
vt 0.413639 0.873999
vt 0.420324 0.524968
vt 0.391505 0.668038
vt 0.410885 0.430335
vt 0.416581 0.314972
vt 0.357798 0.524880
vt 0.344644 0.191364
vt 0.273750 0.842550
vt 0.309596 0.680853
vt 0.297894 0.553541
vt 0.321485 0.390278
vt 0.234404 0.583719
vt 0.249908 0.473407
vt 0.221259 0.367126
vt 0.178066 0.463503
vt 0.217258 0.268920
vt 0.201359 0.732432
vt 0.171244 0.583658
vt 0.131886 0.476441
vt 0.107351 0.044188
vt 0.841602 0.048985
vt 0.192257 0.152241
vt 0.100578 0.556267
vt 0.107194 0.350041
vt 0.099757 0.729769
vt 0.050659 0.585115
vt 1.000000 0.527980
vt 0.012596 0.516702
vt 1.000000 0.398312
vt 0.035359 0.422945
vt 1.000000 0.312500
vt 0.026914 0.288602
vt 0.989495 0.690438
vt 0.006493 0.705805
vt 0.067578 0.190072
vt 0.992800 0.157056
vt 0.952684 0.452599
vt 0.943628 0.583794
vt 0.000000 0.250000
vt 0.948295 0.287091
vt 0.018644 0.837270
vt 0.925616 0.837244
vt 0.892033 0.415563
vt 0.877030 0.552388
vt 0.878700 0.193082
vt 0.884207 0.710249
vt 0.840165 0.352491
vt 0.797954 0.604822
vt 0.811540 0.474567
s 0
usemtl Material
f 17/31/2 33/51/2 43/70/2
f 10/17/3 17/31/3 3/7/3
f 20/37/5 33/51/5 17/31/5
f 49/79/7 53/83/7 52/82/7
f 52/82/9 53/83/9 56/86/9
f 53/83/12 61/93/12 58/88/12
f 58/88/18 64/96/18 67/99/18
f 56/86/19 58/88/19 69/101/19
f 66/98/21 73/105/21 67/99/21
f 74/106/23 76/108/23 69/101/23
f 76/108/26 89/121/26 69/101/26
f 75/107/27 80/112/27 73/105/27
f 73/105/28 80/112/28 74/106/28
f 80/112/33 85/117/33 76/108/33
f 76/108/36 85/117/36 90/123/36
f 87/119/39 88/120/39 84/116/39
f 83/115/40 84/116/40 92/125/40
f 85/117/42 92/125/42 99/136/42
f 92/125/44 97/133/44 99/136/44
f 88/120/46 91/124/46 96/131/46
f 92/125/47 96/131/47 97/133/47
f 91/124/48 94/127/48 95/129/48
f 94/127/49 98/135/49 95/129/49
f 95/128/51 100/138/51 96/130/51
f 99/137/52 102/141/52 106/146/52
f 98/134/53 101/139/53 95/128/53
f 95/128/54 101/139/54 100/138/54
f 102/141/57 104/144/57 108/148/57
f 105/145/59 110/150/59 104/144/59
f 108/148/60 52/82/60 106/146/60
f 106/146/62 52/82/62 56/86/62
f 110/150/63 49/79/63 108/148/63
f 23/40/67 8/14/67 12/22/67 26/43/67
f 15/27/67 24/41/67 19/36/67 2/4/67
f 1/1/68 14/25/68 15/28/68 2/5/68
f 6/12/67 22/39/67 25/42/67 16/30/67
f 28/45/69 1/2/69 2/6/69 19/35/69
f 13/24/4 28/46/4 21/38/4 5/11/4
f 17/31/70 9/16/70 7/13/70 20/37/70
f 28/46/4 14/26/4 1/3/4
f 10/18/71 3/8/71 4/10/71 11/19/71
f 27/44/72 11/20/72 4/9/72 18/34/72
f 13/23/68 5/11/68 6/12/68 16/29/68
f 8/14/73 7/13/73 9/15/73 12/21/73
f 5/11/74 21/38/74 22/39/74 6/12/74
f 3/8/75 17/32/75 18/33/75 4/10/75
f 30/48/80 24/41/80 15/27/80 35/54/80
f 35/55/84 15/28/84 14/25/84 38/60/84
f 41/67/88 9/16/88 10/17/88 42/68/88
f 42/69/89 10/18/89 11/19/89 39/62/89
f 34/53/90 48/78/90 21/38/90 28/46/90
f 37/59/91 38/61/91 14/26/91 13/24/91
f 29/47/80 39/63/80 11/20/80 27/44/80
f 20/37/74 7/13/74 8/14/74 23/40/74
f 53/83/95 58/88/95 56/86/95
f 89/122/98 56/86/98 69/101/98
f 69/101/103 58/88/103 67/99/103
f 67/99/108 73/105/108 74/106/108
f 69/101/110 67/99/110 74/106/110
f 74/106/114 80/112/114 76/108/114
f 76/108/117 90/123/117 89/121/117
f 85/117/118 80/112/118 83/115/118
f 100/138/121 102/141/121 97/132/121 96/130/121
f 85/117/124 83/115/124 92/125/124
f 90/123/126 85/117/126 99/136/126
f 87/119/127 91/124/127 88/120/127
f 92/125/128 84/116/128 88/120/128
f 89/121/129 90/123/129 99/136/129
f 92/125/130 88/120/130 96/131/130
f 96/131/132 91/124/132 95/129/132
f 99/136/134 97/133/134 102/140/134
f 89/122/135 99/137/135 106/146/135
f 102/141/136 100/138/136 104/144/136
f 100/138/137 101/139/137 105/145/137
f 100/138/138 105/145/138 104/144/138
f 102/141/139 108/148/139 106/146/139
f 104/144/140 110/150/140 108/148/140
f 52/82/143 108/148/143 49/79/143
f 106/146/146 56/86/146 89/122/146
usemtl Material.001
f 17/31/1 10/17/1 9/16/1
f 34/53/4 33/51/4 48/78/4
f 51/81/6 53/83/6 49/79/6
f 51/81/8 50/80/8 55/85/8
f 55/85/10 57/87/10 61/93/10
f 55/85/11 61/93/11 53/83/11
f 59/89/13 65/97/13 54/84/13
f 65/97/14 62/94/14 57/87/14
f 62/94/15 63/95/15 57/87/15
f 59/89/16 60/90/16 70/102/16
f 61/93/17 64/96/17 58/88/17
f 62/94/20 65/97/20 68/100/20
f 66/98/22 68/100/22 71/103/22
f 68/100/24 70/102/24 72/104/24
f 71/103/25 72/104/25 75/107/25
f 72/104/29 70/102/29 78/110/29
f 70/102/30 60/91/30 77/109/30
f 75/107/31 78/110/31 79/111/31
f 79/111/32 82/114/32 80/112/32
f 82/114/34 83/115/34 80/112/34
f 78/110/35 77/109/35 86/118/35
f 79/111/37 78/110/37 81/113/37
f 86/118/38 87/119/38 81/113/38
f 60/91/41 93/126/41 86/118/41
f 93/126/43 91/124/43 87/119/43
f 93/126/45 94/127/45 91/124/45
f 103/142/50 98/135/50 93/126/50
f 98/134/55 107/147/55 101/139/55
f 98/134/56 103/143/56 107/147/56
f 107/147/58 105/145/58 101/139/58
f 107/147/61 109/149/61 105/145/61
f 103/143/64 59/89/64 54/84/64
f 54/84/65 50/80/65 109/149/65
f 109/149/66 50/80/66 51/81/66
f 40/64/76 12/21/76 9/15/76 41/66/76
f 34/52/77 28/45/77 19/35/77 47/77/77
f 30/48/78 47/76/78 19/36/78 24/41/78
f 13/24/4 14/26/4 28/46/4
f 46/74/79 18/33/79 17/32/79 43/71/79
f 37/58/81 13/23/81 16/29/81 36/56/81
f 33/51/82 20/37/82 23/40/82 45/73/82
f 32/50/83 45/73/83 23/40/83 26/43/83
f 44/72/85 22/39/85 21/38/85 48/78/85
f 32/50/67 29/47/67 30/48/67 31/49/67
f 31/49/67 30/48/67 35/54/67 36/57/67
f 34/53/4 43/70/4 33/51/4
f 36/56/68 35/55/68 38/60/68 37/58/68
f 42/69/73 39/62/73 40/64/73 41/66/73
f 32/50/67 40/65/67 39/63/67 29/47/67
f 45/73/67 32/50/67 31/49/67 44/72/67
f 46/75/67 47/76/67 30/48/67 29/47/67
f 45/73/74 44/72/74 48/78/74 33/51/74
f 47/77/69 46/74/69 43/71/69 34/52/69
f 29/47/86 27/44/86 18/34/86 46/75/86
f 31/49/87 36/57/87 16/30/87 25/42/87
f 31/49/78 25/42/78 22/39/78 44/72/78
f 32/50/92 26/43/92 12/22/92 40/65/92
f 57/87/93 50/80/93 54/84/93 65/97/93
f 53/83/94 51/81/94 55/85/94
f 84/116/96 82/114/96 81/113/96 87/119/96
f 55/85/97 50/80/97 57/87/97
f 61/93/99 57/87/99 63/95/99
f 59/89/100 70/102/100 65/97/100
f 64/96/101 61/93/101 63/95/101
f 64/96/102 63/95/102 66/98/102
f 63/95/104 62/94/104 68/100/104
f 66/98/105 63/95/105 68/100/105
f 67/99/106 64/96/106 66/98/106
f 66/98/107 71/103/107 73/105/107
f 68/100/109 65/97/109 70/102/109
f 71/103/111 68/100/111 72/104/111
f 71/103/112 75/107/112 73/105/112
f 75/107/113 72/104/113 78/110/113
f 78/110/115 70/102/115 77/109/115
f 75/107/116 79/111/116 80/112/116
f 82/114/119 79/111/119 81/113/119
f 78/110/120 86/118/120 81/113/120
f 83/115/122 82/114/122 84/116/122
f 77/109/123 60/91/123 86/118/123
f 86/118/125 93/126/125 87/119/125
f 60/91/131 103/142/131 93/126/131
f 93/126/133 98/135/133 94/127/133
f 110/150/141 105/145/141 109/149/141
f 103/143/142 60/92/142 59/89/142
f 107/147/144 103/143/144 54/84/144
f 107/147/145 54/84/145 109/149/145
f 110/150/147 109/149/147 51/81/147
f 110/150/148 51/81/148 49/79/148
o BezierCircle
v 2.863489 0.765604 3.706833
v 2.762846 0.756318 3.738661
v 2.683326 0.766109 3.614671
v 2.708730 0.825957 3.760634
v 2.684893 0.901017 3.618999
v 2.881938 0.928392 3.735029
v 2.952876 0.931426 3.596066
v 2.966750 0.856012 3.583439
v 2.865725 0.752024 3.561426
v 2.516213 0.757882 3.708540
v 2.652222 0.776715 3.756710
v 2.680797 0.766132 3.614676
v 2.697013 0.864135 3.622610
v 2.650881 0.917000 3.614275
v 2.411199 0.931428 3.596069
v 2.450554 0.911537 3.736611
v 2.397341 0.856010 3.583438
v 2.498358 0.752037 3.561425
v 2.725513 0.811596 3.752463
v 2.871194 0.908142 3.729807
v 2.926216 0.818581 3.717394
v 2.873338 0.780218 3.562201
v 2.640835 0.866289 3.755116
v 2.492728 0.908073 3.729786
v 2.437875 0.818585 3.717394
v 2.490813 0.780175 3.562210
vn -0.0672 -0.7237 0.6868
vn -0.7252 -0.2322 -0.6482
vn 0.1777 -0.6820 -0.7094
vn 0.3883 -0.0418 0.9206
vn 0.8698 -0.1131 -0.4803
vn 0.2547 0.6525 0.7137
vn 0.2925 -0.3917 0.8724
vn -0.1159 -0.6583 0.7437
vn -0.1649 -0.6925 -0.7023
vn 0.4201 -0.4476 0.7894
vn -0.8462 -0.1432 -0.5133
vn -0.3760 -0.3020 0.8760
vn -0.3495 0.4961 0.7948
vn 0.7891 0.0456 0.6125
vn -0.5228 0.4379 -0.7314
vn 0.0162 -0.7916 0.6109
vn 0.3908 0.8869 -0.2464
vn 0.4757 -0.3789 -0.7938
vn 0.2963 0.4901 -0.8198
vn 0.0666 -0.9616 -0.2664
vn 0.3237 0.3033 -0.8962
vn 0.7606 -0.4177 -0.4969
vn -0.2252 0.9380 -0.2637
vn -0.5466 0.0029 0.8374
vn 0.0204 0.8220 0.5691
vn -0.2888 0.5046 -0.8136
vt 0.975851 1.000000
vt 0.040075 1.000000
vt 0.151604 1.000000
vt 0.184490 0.000000
vt 0.272576 1.000000
vt 0.346696 0.000000
vt 0.601434 1.000000
vt 0.691750 0.000000
vt 0.842146 0.000000
vt 0.023606 0.000000
vt 0.970730 0.000000
vt 0.044330 1.000000
vt 0.977131 1.000000
vt 0.218610 1.000000
vt 0.184512 0.000000
vt 0.308221 0.000000
vt 0.376755 0.000000
vt 0.691682 0.000000
vt 0.653032 1.000000
vt 0.842148 0.000000
vt 0.023603 0.000000
vt 0.970734 0.000000
vt 0.247362 1.000000
vt 0.592712 1.000000
vt 0.851658 1.000000
vt 0.010804 0.000000
vt 0.970474 0.000000
vt 0.321353 1.000000
vt 0.592932 1.000000
vt 0.851650 1.000000
vt 0.010858 0.000000
vt 0.970391 0.000000
s 1
usemtl Material.002
f 112/153/149 113/154/150 119/160/151
f 131/175/152 118/159/153 116/157/154
f 111/151/155 119/161/151 131/175/152
f 120/162/156 128/171/157 121/164/158
f 127/170/159 135/180/160 126/169/161
f 128/172/157 120/163/156 135/180/160
f 111/152/155 113/154/150 129/173/162
f 129/173/162 115/156/163 130/174/164
f 117/158/165 131/175/152 130/174/164
f 117/158/165 111/151/155 131/175/152
f 120/162/156 122/165/166 136/181/167
f 134/179/168 124/167/169 123/166/170
f 135/180/160 125/168/171 134/179/168
f 120/163/156 125/168/171 135/180/160
f 112/153/149 129/173/162 114/155/172
f 116/157/154 130/174/164 131/175/152
f 128/171/157 136/181/167 122/165/166
f 121/164/158 133/178/173 120/162/156
f 126/169/161 134/179/168 133/178/173
f 111/152/155 112/153/149 119/160/151
f 112/153/149 114/155/172 113/154/150
f 114/155/172 115/156/163 113/154/150
f 114/155/172 116/157/154 115/156/163
f 116/157/154 117/158/165 115/156/163
f 116/157/154 118/159/153 117/158/165
f 131/175/152 119/161/151 118/159/153
f 121/164/158 128/171/157 122/165/166
f 122/165/166 123/166/170 121/164/158
f 126/169/161 133/178/173 124/167/169 125/168/171
f 129/173/162 130/174/164 116/157/154 114/155/172
f 125/168/171 127/170/159 126/169/161
f 127/170/159 128/172/157 135/180/160
f 111/152/155 132/176/174 113/154/150
f 113/154/150 115/156/163 129/173/162
f 115/156/163 117/158/165 130/174/164
f 124/167/169 133/178/173 121/164/158 123/166/170
f 117/158/165 132/177/174 111/151/155
f 120/162/156 133/178/173 122/165/166
f 133/178/173 123/166/170 122/165/166
f 133/178/173 134/179/168 123/166/170
f 134/179/168 125/168/171 124/167/169
f 120/163/156 136/182/167 125/168/171
f 119/160/151 113/154/150 132/176/174
f 112/153/149 111/152/155 129/173/162
f 117/158/165 118/159/153 119/161/151 132/177/174
f 125/168/171 136/182/167 128/172/157 127/170/159
f 126/169/161 135/180/160 134/179/168
o BezierCircle
v 2.863489 0.765604 3.706833
v 2.762846 0.756318 3.738661
v 2.683326 0.766109 3.614671
v 2.708730 0.825957 3.760634
v 2.684893 0.901017 3.618999
v 2.881938 0.928392 3.735029
v 2.952876 0.931426 3.596066
v 2.966750 0.856012 3.583439
v 2.865725 0.752024 3.561426
v 2.516213 0.757882 3.708540
v 2.652222 0.776715 3.756710
v 2.680797 0.766132 3.614676
v 2.697013 0.864135 3.622610
v 2.650881 0.917000 3.614275
v 2.411199 0.931428 3.596069
v 2.450554 0.911537 3.736611
v 2.397341 0.856010 3.583438
v 2.498358 0.752037 3.561425
v 2.725513 0.811596 3.752463
v 2.871194 0.908142 3.729807
v 2.926216 0.818581 3.717394
v 2.873338 0.780218 3.562201
v 2.640835 0.866289 3.755116
v 2.492728 0.908073 3.729786
v 2.437875 0.818585 3.717394
v 2.490813 0.780175 3.562210
vn -0.0672 -0.7237 0.6868
vn -0.7252 -0.2322 -0.6482
vn 0.1777 -0.6820 -0.7094
vn 0.3883 -0.0418 0.9206
vn 0.8698 -0.1131 -0.4803
vn 0.2547 0.6525 0.7137
vn 0.2925 -0.3917 0.8724
vn -0.1159 -0.6583 0.7437
vn -0.1649 -0.6925 -0.7023
vn 0.4201 -0.4476 0.7894
vn -0.8462 -0.1432 -0.5133
vn -0.3760 -0.3020 0.8760
vn -0.3495 0.4961 0.7948
vn 0.7891 0.0456 0.6125
vn -0.5228 0.4379 -0.7314
vn 0.0162 -0.7916 0.6109
vn 0.3908 0.8869 -0.2464
vn 0.4757 -0.3789 -0.7938
vn 0.2963 0.4901 -0.8198
vn 0.0666 -0.9616 -0.2664
vn 0.3237 0.3033 -0.8962
vn 0.7606 -0.4177 -0.4969
vn -0.2252 0.9380 -0.2637
vn -0.5466 0.0029 0.8374
vn 0.0204 0.8220 0.5691
vn -0.2888 0.5046 -0.8136
vt 0.975851 1.000000
vt 0.040075 1.000000
vt 0.151604 1.000000
vt 0.184490 0.000000
vt 0.272576 1.000000
vt 0.346696 0.000000
vt 0.601434 1.000000
vt 0.691750 0.000000
vt 0.842146 0.000000
vt 0.023606 0.000000
vt 0.970730 0.000000
vt 0.044330 1.000000
vt 0.977131 1.000000
vt 0.218610 1.000000
vt 0.184512 0.000000
vt 0.308221 0.000000
vt 0.376755 0.000000
vt 0.691682 0.000000
vt 0.653032 1.000000
vt 0.842148 0.000000
vt 0.023603 0.000000
vt 0.970734 0.000000
vt 0.247362 1.000000
vt 0.592712 1.000000
vt 0.851658 1.000000
vt 0.010804 0.000000
vt 0.970474 0.000000
vt 0.321353 1.000000
vt 0.592932 1.000000
vt 0.851650 1.000000
vt 0.010858 0.000000
vt 0.970391 0.000000
s 1
usemtl Material.002
f 138/185/175 139/186/176 145/192/177
f 157/207/178 144/191/179 142/189/180
f 137/183/181 145/193/177 157/207/178
f 146/194/182 154/203/183 147/196/184
f 153/202/185 161/212/186 152/201/187
f 154/204/183 146/195/182 161/212/186
f 137/184/181 139/186/176 155/205/188
f 155/205/188 141/188/189 156/206/190
f 143/190/191 157/207/178 156/206/190
f 143/190/191 137/183/181 157/207/178
f 146/194/182 148/197/192 162/213/193
f 160/211/194 150/199/195 149/198/196
f 161/212/186 151/200/197 160/211/194
f 146/195/182 151/200/197 161/212/186
f 138/185/175 155/205/188 140/187/198
f 142/189/180 156/206/190 157/207/178
f 154/203/183 162/213/193 148/197/192
f 147/196/184 159/210/199 146/194/182
f 152/201/187 160/211/194 159/210/199
f 137/184/181 138/185/175 145/192/177
f 138/185/175 140/187/198 139/186/176
f 140/187/198 141/188/189 139/186/176
f 140/187/198 142/189/180 141/188/189
f 142/189/180 143/190/191 141/188/189
f 142/189/180 144/191/179 143/190/191
f 157/207/178 145/193/177 144/191/179
f 147/196/184 154/203/183 148/197/192
f 148/197/192 149/198/196 147/196/184
f 152/201/187 159/210/199 150/199/195 151/200/197
f 155/205/188 156/206/190 142/189/180 140/187/198
f 151/200/197 153/202/185 152/201/187
f 153/202/185 154/204/183 161/212/186
f 137/184/181 158/208/200 139/186/176
f 139/186/176 141/188/189 155/205/188
f 141/188/189 143/190/191 156/206/190
f 150/199/195 159/210/199 147/196/184 149/198/196
f 143/190/191 158/209/200 137/183/181
f 146/194/182 159/210/199 148/197/192
f 159/210/199 149/198/196 148/197/192
f 159/210/199 160/211/194 149/198/196
f 160/211/194 151/200/197 150/199/195
f 146/195/182 162/214/193 151/200/197
f 145/192/177 139/186/176 158/208/200
f 138/185/175 137/184/181 155/205/188
f 143/190/191 144/191/179 145/193/177 158/209/200
f 151/200/197 162/214/193 154/204/183 153/202/185
f 152/201/187 161/212/186 160/211/194
