# Blender 3.3.1
# www.blender.org
mtllib prez.mtl
o BezierCircle.003
v -23.568787 -1.416047 -10.317616
v -23.669430 -1.425333 -10.285788
v -23.748949 -1.415542 -10.409777
v -23.723545 -1.355694 -10.263814
v -23.747383 -1.280634 -10.405449
v -23.550339 -1.253259 -10.289419
v -23.479401 -1.250225 -10.428382
v -23.465527 -1.325639 -10.441010
v -23.566551 -1.429627 -10.463022
v -23.916063 -1.423769 -10.315908
v -23.780054 -1.404936 -10.267738
v -23.751478 -1.415519 -10.409772
v -23.735264 -1.317516 -10.401838
v -23.781395 -1.264651 -10.410173
v -24.021076 -1.250223 -10.428379
v -23.981722 -1.270114 -10.287837
v -24.034935 -1.325641 -10.441010
v -23.933918 -1.429614 -10.463023
v -23.706762 -1.370055 -10.271985
v -23.561081 -1.273509 -10.294641
v -23.506060 -1.363070 -10.307055
v -23.558937 -1.401433 -10.462247
v -23.791441 -1.315362 -10.269332
v -23.939548 -1.273578 -10.294662
v -23.994400 -1.363066 -10.307055
v -23.941463 -1.401476 -10.462238
vn -0.0672 -0.7237 0.6869
vn -0.7252 -0.2322 -0.6482
vn 0.1777 -0.6820 -0.7094
vn 0.3884 -0.0418 0.9206
vn 0.8698 -0.1131 -0.4803
vn 0.2547 0.6525 0.7137
vn 0.2925 -0.3917 0.8724
vn -0.1159 -0.6584 0.7437
vn -0.1650 -0.6925 -0.7023
vn 0.4201 -0.4476 0.7894
vn -0.8462 -0.1431 -0.5133
vn -0.3760 -0.3020 0.8760
vn -0.3495 0.4961 0.7948
vn 0.7891 0.0457 0.6125
vn -0.5228 0.4379 -0.7314
vn 0.0162 -0.7916 0.6109
vn 0.3908 0.8869 -0.2464
vn 0.4757 -0.3789 -0.7939
vn 0.2962 0.4901 -0.8198
vn 0.0666 -0.9616 -0.2664
vn 0.3237 0.3033 -0.8962
vn 0.7607 -0.4177 -0.4969
vn -0.2252 0.9379 -0.2637
vn -0.5466 0.0029 0.8374
vn 0.0204 0.8220 0.5691
vn -0.2888 0.5046 -0.8136
vt 0.975851 1.000000
vt 0.040075 1.000000
vt 0.151604 1.000000
vt 0.184490 0.000000
vt 0.272576 1.000000
vt 0.346696 0.000000
vt 0.601434 1.000000
vt 0.691750 0.000000
vt 0.842146 0.000000
vt 0.023606 0.000000
vt 0.970730 0.000000
vt 0.044330 1.000000
vt 0.977131 1.000000
vt 0.218610 1.000000
vt 0.184512 0.000000
vt 0.308221 0.000000
vt 0.376755 0.000000
vt 0.691682 0.000000
vt 0.653032 1.000000
vt 0.842148 0.000000
vt 0.023603 0.000000
vt 0.970734 0.000000
vt 0.247362 1.000000
vt 0.592712 1.000000
vt 0.851658 1.000000
vt 0.010804 0.000000
vt 0.970474 0.000000
vt 0.321353 1.000000
vt 0.592932 1.000000
vt 0.851650 1.000000
vt 0.010858 0.000000
vt 0.970391 0.000000
s 1
usemtl Material.014
f 2/3/1 3/4/2 9/10/3
f 21/25/4 8/9/5 6/7/6
f 1/1/7 9/11/3 21/25/4
f 10/12/8 18/21/9 11/14/10
f 17/20/11 25/30/12 16/19/13
f 18/22/9 10/13/8 25/30/12
f 1/2/7 3/4/2 19/23/14
f 19/23/14 5/6/15 20/24/16
f 7/8/17 21/25/4 20/24/16
f 7/8/17 1/1/7 21/25/4
f 10/12/8 12/15/18 26/31/19
f 24/29/20 14/17/21 13/16/22
f 25/30/12 15/18/23 24/29/20
f 10/13/8 15/18/23 25/30/12
f 2/3/1 19/23/14 4/5/24
f 6/7/6 20/24/16 21/25/4
f 18/21/9 26/31/19 12/15/18
f 11/14/10 23/28/25 10/12/8
f 16/19/13 24/29/20 23/28/25
f 1/2/7 2/3/1 9/10/3
f 2/3/1 4/5/24 3/4/2
f 4/5/24 5/6/15 3/4/2
f 4/5/24 6/7/6 5/6/15
f 6/7/6 7/8/17 5/6/15
f 6/7/6 8/9/5 7/8/17
f 21/25/4 9/11/3 8/9/5
f 11/14/10 18/21/9 12/15/18
f 12/15/18 13/16/22 11/14/10
f 16/19/13 23/28/25 14/17/21 15/18/23
f 19/23/14 20/24/16 6/7/6 4/5/24
f 15/18/23 17/20/11 16/19/13
f 17/20/11 18/22/9 25/30/12
f 1/2/7 22/26/26 3/4/2
f 3/4/2 5/6/15 19/23/14
f 5/6/15 7/8/17 20/24/16
f 14/17/21 23/28/25 11/14/10 13/16/22
f 7/8/17 22/27/26 1/1/7
f 10/12/8 23/28/25 12/15/18
f 23/28/25 13/16/22 12/15/18
f 23/28/25 24/29/20 13/16/22
f 24/29/20 15/18/23 14/17/21
f 10/13/8 26/32/19 15/18/23
f 9/10/3 3/4/2 22/26/26
f 2/3/1 1/2/7 19/23/14
f 7/8/17 8/9/5 9/11/3 22/27/26
f 15/18/23 26/32/19 18/22/9 17/20/11
f 16/19/13 25/30/12 24/29/20
o Cube.021
v -24.131834 -2.205346 -10.025810
v -24.131834 -1.442137 -10.025809
v -24.131834 -2.205932 -10.789258
v -24.131834 -1.441551 -10.789257
v -23.368626 -2.205346 -10.025810
v -23.368626 -1.442137 -10.025809
v -23.368626 -2.205346 -10.789021
v -23.368626 -1.442137 -10.789019
v -23.681961 -2.205346 -10.789021
v -23.844645 -2.205346 -10.789021
v -23.844645 -1.442137 -10.789019
v -23.684010 -1.442137 -10.789019
v -23.681961 -2.205346 -10.025810
v -23.844645 -2.205346 -10.025810
v -23.844645 -1.442137 -10.025809
v -23.681961 -1.442137 -10.025809
v -24.131874 -2.205561 -10.478933
v -24.131834 -1.441551 -10.478823
v -24.131834 -1.442137 -10.316378
v -23.368626 -2.205346 -10.479062
v -23.368626 -2.205346 -10.316379
v -23.368626 -1.442137 -10.316378
v -23.368626 -1.442137 -10.479061
v -23.844645 -1.442137 -10.316378
v -23.681961 -1.442137 -10.316378
v -23.684010 -1.442137 -10.479061
v -23.844645 -1.442137 -10.479061
v -24.131834 -2.205346 -10.316379
v -23.848335 -1.425702 -10.482426
v -23.848335 -1.425702 -10.312735
v -23.678646 -1.425702 -10.312735
v -23.680807 -1.425702 -10.482426
v -23.351816 -2.221781 -10.482427
v -24.147894 -2.221781 -10.312737
v -23.848335 -1.425702 -10.009653
v -23.678646 -1.425702 -10.009653
v -23.678646 -2.221781 -10.009654
v -23.848335 -2.221781 -10.009654
v -23.848335 -1.425701 -10.805733
v -23.680807 -1.425701 -10.805733
v -23.678646 -2.221780 -10.805734
v -23.848335 -2.221780 -10.805734
v -24.147881 -2.221786 -10.482303
v -23.351816 -1.425702 -10.312735
v -23.351816 -1.425702 -10.482426
v -24.147894 -1.425702 -10.482426
v -24.147894 -1.425702 -10.312735
v -23.351816 -2.221781 -10.312737
v -23.757353 -1.421371 -10.500338
v -23.734783 -1.393616 -10.493677
v -23.740000 -1.406737 -10.504140
v -23.760918 -1.433946 -10.481930
v -23.716566 -1.422328 -10.494701
v -23.740263 -1.381835 -10.468964
v -23.703077 -1.407169 -10.492831
v -23.722403 -1.441905 -10.453062
v -23.687794 -1.398026 -10.475681
v -23.683290 -1.431197 -10.454865
v -23.741196 -1.375575 -10.437265
v -23.765018 -1.374242 -10.396280
v -23.671593 -1.413175 -10.465681
v -23.675085 -1.389453 -10.435391
v -23.660686 -1.399925 -10.426787
v -23.657999 -1.419443 -10.430432
v -23.703285 -1.379027 -10.433147
v -23.656075 -1.408621 -10.393981
v -23.665642 -1.429130 -10.405502
v -23.672222 -1.390993 -10.383987
v -23.712833 -1.444432 -10.412904
v -23.718801 -1.376255 -10.387575
v -23.667690 -1.407045 -10.360107
v -23.686790 -1.391003 -10.354958
v -23.671951 -1.418920 -10.356096
v -23.680479 -1.430817 -10.365624
v -23.691442 -1.407053 -10.331113
v -23.719584 -1.440895 -10.361761
v -23.742783 -1.378287 -10.361204
v -23.720844 -1.390572 -10.328918
v -23.723108 -1.403857 -10.314952
v -23.711863 -1.423593 -10.324041
v -23.758883 -1.400970 -10.313294
v -23.749937 -1.413592 -10.309424
v -23.765265 -1.426009 -10.319887
v -23.791315 -1.414179 -10.320108
v -23.764820 -1.435220 -10.336016
v -23.770510 -1.385031 -10.339024
v -23.793158 -1.400389 -10.324579
v -23.814032 -1.412643 -10.335335
v -23.754915 -1.446957 -10.406483
v -23.766108 -1.442925 -10.365727
v -23.825203 -1.403204 -10.350313
v -23.817692 -1.428717 -10.354489
v -23.806347 -1.384838 -10.364336
v -23.834824 -1.399374 -10.377230
v -23.847593 -1.408269 -10.399319
v -23.844007 -1.418650 -10.386061
v -23.825397 -1.433370 -10.395231
v -23.826881 -1.388856 -10.407197
v -23.799015 -1.441311 -10.384452
v -23.842928 -1.416520 -10.436035
v -23.838907 -1.400618 -10.440823
v -23.822290 -1.433577 -10.432348
v -23.789371 -1.377256 -10.427027
v -23.824003 -1.420172 -10.465912
v -23.819757 -1.403840 -10.475313
v -23.790035 -1.441172 -10.444295
v -23.806671 -1.387416 -10.460564
v -23.796709 -1.427054 -10.480910
v -23.779062 -1.397421 -10.495108
v -23.786400 -1.413554 -10.498685
vn -0.0002 0.2035 -0.9791
vn 0.0020 -1.0000 0.0012
vn -0.0002 0.2003 -0.9797
vn 0.0573 -0.8295 -0.5556
vn 0.1193 -0.9049 -0.4087
vn 0.4974 -0.6605 -0.5625
vn 0.5371 -0.8287 -0.1573
vn 0.2569 -0.9587 -0.1216
vn 0.8348 -0.5082 0.2117
vn 0.2576 -0.9610 0.1005
vn 0.0716 -0.9944 0.0782
vn 0.5923 -0.4434 0.6728
vn 0.4768 -0.7318 0.4870
vn 0.1107 -0.9117 0.3955
vn 0.0209 -0.9680 0.2501
vn -0.5370 0.1945 0.8209
vn -0.3420 -0.7423 0.5762
vn -0.2086 -0.9413 0.2656
vn -0.3474 -0.9220 0.1710
vn -0.8387 -0.1738 0.5162
vn -0.5470 -0.8138 0.1964
vn -0.8650 0.3507 0.3590
vn -0.6639 0.7430 0.0847
vn -0.9296 -0.3669 -0.0357
vn -0.2426 -0.9694 -0.0386
vn -0.6857 0.7278 -0.0093
vn -0.9667 0.1943 -0.1665
vn -0.3946 -0.8601 -0.3234
vn -0.6041 -0.2737 -0.7484
vn -0.1878 -0.9275 -0.3234
vn -0.0387 -0.9753 -0.2172
vn -0.2284 -0.7069 -0.6695
vn -0.0000 1.0000 -0.0000
vn -0.0000 -0.0000 1.0000
vn -1.0000 -0.0000 -0.0000
vn -0.0000 -1.0000 -0.0000
vn 0.0002 -1.0000 -0.0002
vn 0.0008 -0.0000 -1.0000
vn 0.0020 1.0000 -0.0000
vn -0.0000 -0.0000 -1.0000
vn 1.0000 -0.0000 -0.0000
vn -1.0000 -0.0000 -0.0001
vn -0.9757 -0.2191 -0.0000
vn -0.9749 -0.0000 -0.2227
vn -0.0000 -0.7130 0.7011
vn -0.9765 -0.0000 0.2156
vn -0.0000 0.2164 0.9763
vn -0.0000 -0.7010 -0.7131
vn -0.9757 -0.2190 -0.0000
vn 0.2267 -0.8932 -0.3882
vn 0.0484 -0.9961 -0.0742
vn 0.3181 -0.9452 -0.0742
vn 0.6945 -0.6819 0.2296
vn 0.2977 -0.9521 0.0705
vn 0.2661 -0.8957 0.3564
vn 0.0342 -0.9936 0.1077
vn 0.0777 -0.8648 0.4961
vn -0.6325 -0.7731 -0.0475
vn -0.2683 -0.8397 0.4722
vn -0.1911 -0.9481 0.2541
vn -0.5947 0.4015 0.6966
vn -0.4591 -0.6353 0.6210
vn -0.0905 -0.9932 0.0734
vn -0.7583 -0.4208 0.4979
vn -0.9004 0.1894 0.3918
vn -0.2813 -0.9594 -0.0182
vn -0.1383 -0.9901 -0.0231
vn -0.5827 -0.7645 -0.2756
vn -0.8691 0.0724 -0.4893
vn -0.8464 -0.0828 -0.5260
vn -0.3197 -0.9022 -0.2896
vn -0.5086 -0.5177 -0.6880
vn -0.1701 -0.7981 -0.5781
vn -0.0271 -0.9916 -0.1265
vn -0.0000 -1.0000 -0.0007
vn 0.1180 -0.3785 -0.9181
vn 0.2523 0.5400 -0.8030
vn 0.6601 0.2348 -0.7135
vn 0.5528 -0.4018 -0.7300
vn 0.1094 0.9758 -0.1895
vn 0.3114 0.9047 -0.2907
vn 0.6789 0.6447 -0.3514
vn 0.0447 0.9990 -0.0065
vn 0.6613 -0.6520 -0.3710
vn 0.3473 0.9377 0.0088
vn 0.7798 0.5780 0.2405
vn 0.2883 0.9465 0.1450
vn 0.6284 0.5830 0.5150
vn 0.1948 0.9513 0.2390
vn 0.0247 0.9948 0.0991
vn 0.4026 0.6298 0.6643
vn 0.2850 -0.2622 0.9220
vn 0.0868 -0.7024 0.7065
vn 0.0373 0.9421 0.3331
vn 0.0898 0.7143 0.6941
vn -0.1757 0.7994 0.5745
vn -0.1170 0.9779 0.1731
vn -0.4295 0.7835 0.4491
vn -0.5388 0.7855 0.3044
vn -0.2750 0.9605 0.0417
vn -0.4506 0.8805 -0.1469
vn -0.3441 0.9330 -0.1051
vn -0.5367 0.7589 -0.3688
vn -0.3745 0.7667 -0.5214
vn -0.0756 0.9778 -0.1953
vn -0.0627 0.8954 -0.4407
vn -0.0290 0.6303 -0.7758
vn 0.9815 0.0026 0.1914
vn 0.2212 -0.0000 0.9752
vn -0.0000 -0.2164 0.9763
vn 0.2124 -0.0000 -0.9772
vn 0.9796 -0.0000 -0.2010
vn -0.1963 -0.0000 -0.9806
vn -0.0000 -0.2006 -0.9797
vn -0.2118 -0.0000 0.9773
vn -0.0006 -0.2113 -0.9774
vn 0.9802 -0.1979 -0.0000
vn 0.9815 -0.1914 -0.0000
vn 0.2367 0.9093 -0.3424
vn 0.2884 -0.1399 -0.9472
vn -0.2740 0.1860 0.9436
vn 0.3136 0.6932 -0.6490
vn 0.7458 0.5383 -0.3925
vn 0.0937 0.9952 -0.0286
vn 0.9271 0.1884 -0.3241
vn 0.9833 0.1537 -0.0975
vn 0.5916 0.8062 -0.0088
vn 0.7544 0.6530 0.0670
vn 0.8820 -0.4624 0.0907
vn 0.9195 -0.2201 0.3256
vn 0.2983 0.9535 0.0436
vn 0.6577 0.6770 0.3303
vn 0.7720 -0.0634 0.6324
vn 0.4367 0.7045 0.5594
vn 0.1821 0.9538 0.2391
vn 0.4360 -0.1595 0.8857
vn 0.0707 0.3379 0.9385
vn -0.0135 0.8473 0.5310
vn -0.2160 -0.4594 0.8616
vn -0.0981 0.9796 0.1752
vn -0.3008 0.8501 0.4323
vn -0.2014 0.9774 0.0637
vn -0.5062 0.8469 0.1631
vn -0.4522 0.3841 -0.8050
vn -0.0475 0.9971 -0.0601
vn -0.1109 0.9656 -0.2353
vn -0.1238 0.9223 -0.3661
vn -0.1525 0.2795 -0.9479
vn -0.0947 -0.1436 -0.9851
vt 0.375000 1.000000
vt 0.375000 0.000000
vt 0.125000 0.750000
vt 0.875000 0.750000
vt 0.625000 1.000000
vt 0.625000 0.000000
vt 0.125000 0.500000
vt 0.375000 0.250000
vt 0.875000 0.500000
vt 0.625000 0.250000
vt 0.375000 0.750000
vt 0.625000 0.750000
vt 0.375000 0.500000
vt 0.625000 0.500000
vt 0.272362 0.500000
vt 0.375000 0.397362
vt 0.375000 0.344073
vt 0.219073 0.500000
vt 0.625000 0.344073
vt 0.780927 0.500000
vt 0.625000 0.397362
vt 0.727638 0.500000
vt 0.272362 0.750000
vt 0.375000 0.852638
vt 0.375000 0.905927
vt 0.219073 0.750000
vt 0.780927 0.750000
vt 0.625000 0.905927
vt 0.625000 0.852638
vt 0.727638 0.750000
vt 0.124987 0.601531
vt 0.375000 0.148469
vt 0.625000 0.148469
vt 0.875000 0.601531
vt 0.625000 0.095180
vt 0.875000 0.654820
vt 0.375000 0.601531
vt 0.375000 0.654820
vt 0.625000 0.654820
vt 0.625000 0.601531
vt 0.780927 0.654820
vt 0.727638 0.654820
vt 0.727638 0.601531
vt 0.780927 0.601531
vt 0.375000 0.095180
vt 0.125000 0.654820
vt 0.780927 0.601531
vt 0.780927 0.654820
vt 0.727638 0.654820
vt 0.727638 0.601531
vt 0.375000 0.601531
vt 0.125000 0.654820
vt 0.375000 0.095180
vt 0.780927 0.750000
vt 0.625000 0.905927
vt 0.625000 0.852638
vt 0.727638 0.750000
vt 0.272362 0.750000
vt 0.375000 0.852638
vt 0.219073 0.750000
vt 0.375000 0.905927
vt 0.625000 0.344073
vt 0.780927 0.500000
vt 0.625000 0.397362
vt 0.727638 0.500000
vt 0.272362 0.500000
vt 0.375000 0.397362
vt 0.219073 0.500000
vt 0.375000 0.344073
vt 0.125004 0.601531
vt 0.375000 0.148469
vt 0.625000 0.654820
vt 0.625000 0.601531
vt 0.625000 0.148469
vt 0.875000 0.601531
vt 0.875000 0.654820
vt 0.625000 0.095180
vt 0.375000 0.654820
vt 0.760627 0.398994
vt 0.720526 0.646190
vt 0.733796 0.528056
vt 0.773085 0.284705
vt 0.691535 0.406749
vt 0.725308 0.778027
vt 0.670677 0.524281
vt 0.670461 0.199015
vt 0.631403 0.596878
vt 0.596303 0.324351
vt 0.702937 0.899023
vt 0.578125 1.000000
vt 0.113773 0.933313
vt 0.896776 0.960847
vt 0.601758 0.476519
vt 0.556385 0.682648
vt 0.532562 0.580512
vt 0.537190 0.420530
vt 0.572227 0.805889
vt 0.480313 0.520122
vt 0.497744 0.339739
vt 0.454034 0.668189
vt 0.522290 0.126788
vt 0.413639 0.873999
vt 0.420324 0.524968
vt 0.391505 0.668038
vt 0.410885 0.430335
vt 0.416581 0.314972
vt 0.357798 0.524880
vt 0.344644 0.191364
vt 0.273750 0.842550
vt 0.309596 0.680853
vt 0.297894 0.553541
vt 0.321485 0.390278
vt 0.234404 0.583719
vt 0.249908 0.473407
vt 0.221259 0.367126
vt 0.178066 0.463503
vt 0.217258 0.268920
vt 0.201359 0.732432
vt 0.171244 0.583658
vt 0.131886 0.476441
vt 0.107351 0.044188
vt 0.841602 0.048985
vt 0.192257 0.152241
vt 0.100578 0.556267
vt 0.107194 0.350041
vt 0.099757 0.729769
vt 0.050659 0.585115
vt 1.000000 0.527980
vt 0.012596 0.516702
vt 1.000000 0.398312
vt 0.035359 0.422945
vt 1.000000 0.312500
vt 0.026914 0.288602
vt 0.989495 0.690438
vt 0.006493 0.705805
vt 0.067578 0.190072
vt 0.992800 0.157056
vt 0.952684 0.452599
vt 0.943628 0.583794
vt 0.000000 0.250000
vt 0.948295 0.287091
vt 0.018644 0.837270
vt 0.925616 0.837244
vt 0.892033 0.415563
vt 0.877030 0.552388
vt 0.878700 0.193082
vt 0.884207 0.710249
vt 0.840165 0.352491
vt 0.797954 0.604822
vt 0.811540 0.474567
s 0
usemtl Material.015
f 43/63/27 59/83/27 69/102/27
f 36/50/28 43/63/28 29/39/28
f 46/69/29 59/83/29 43/63/29
f 75/111/30 79/115/30 78/114/30
f 78/114/31 79/115/31 82/118/31
f 79/115/32 87/125/32 84/120/32
f 84/120/33 90/128/33 93/131/33
f 82/118/34 84/120/34 95/133/34
f 92/130/35 99/137/35 93/131/35
f 100/138/36 102/140/36 95/133/36
f 102/140/37 115/153/37 95/133/37
f 101/139/38 106/144/38 99/137/38
f 99/137/39 106/144/39 100/138/39
f 106/144/40 111/149/40 102/140/40
f 102/140/41 111/149/41 116/155/41
f 113/151/42 114/152/42 110/148/42
f 109/147/43 110/148/43 118/157/43
f 111/149/44 118/157/44 125/168/44
f 118/157/45 123/165/45 125/168/45
f 114/152/46 117/156/46 122/163/46
f 118/157/47 122/163/47 123/165/47
f 117/156/48 120/159/48 121/161/48
f 120/159/49 124/167/49 121/161/49
f 121/160/50 126/170/50 122/162/50
f 125/169/51 128/173/51 132/178/51
f 124/166/52 127/171/52 121/160/52
f 121/160/53 127/171/53 126/170/53
f 128/173/54 130/176/54 134/180/54
f 131/177/55 136/182/55 130/176/55
f 134/180/56 78/114/56 132/178/56
f 132/178/57 78/114/57 82/118/57
f 136/182/58 75/111/58 134/180/58
f 49/72/59 34/46/59 38/54/59 52/75/59
f 41/59/59 50/73/59 45/68/59 28/36/59
f 27/33/60 40/57/60 41/60/60 28/37/60
f 32/44/59 48/71/59 51/74/59 42/62/59
f 54/77/61 27/34/61 28/38/61 45/67/61
f 39/55/62 54/78/62 47/70/62 31/43/62
f 43/63/63 35/47/63 33/45/63 46/69/63
f 54/78/62 40/58/62 27/35/62
f 36/49/64 29/40/64 30/42/64 37/51/64
f 53/76/65 37/52/65 30/41/65 44/66/65
f 39/56/60 31/43/60 32/44/60 42/61/60
f 34/46/66 33/45/66 35/48/66 38/53/66
f 31/43/67 47/70/67 48/71/67 32/44/67
f 29/40/68 43/64/68 44/65/68 30/42/68
f 56/80/69 50/73/69 41/59/69 61/86/69
f 61/87/70 41/60/70 40/57/70 64/93/70
f 67/98/71 35/47/71 36/50/71 68/100/71
f 68/101/72 36/49/72 37/51/72 65/94/72
f 60/84/73 74/110/73 47/70/73 54/78/73
f 63/90/74 64/92/74 40/58/74 39/55/74
f 55/79/75 65/95/75 37/52/75 53/76/75
f 46/69/67 33/45/67 34/46/67 49/72/67
f 79/115/76 84/120/76 82/118/76
f 115/154/77 82/118/77 95/133/77
f 95/133/78 84/120/78 93/131/78
f 93/131/79 99/137/79 100/138/79
f 95/133/80 93/131/80 100/138/80
f 100/138/81 106/144/81 102/140/81
f 102/140/82 116/155/82 115/153/82
f 111/149/83 106/144/83 109/147/83
f 126/170/84 128/173/84 123/164/84 122/162/84
f 111/149/85 109/147/85 118/157/85
f 116/155/86 111/149/86 125/168/86
f 113/151/87 117/156/87 114/152/87
f 118/157/88 110/148/88 114/152/88
f 115/153/89 116/155/89 125/168/89
f 118/157/90 114/152/90 122/163/90
f 122/163/91 117/156/91 121/161/91
f 125/168/92 123/165/92 128/172/92
f 115/154/93 125/169/93 132/178/93
f 128/173/94 126/170/94 130/176/94
f 126/170/95 127/171/95 131/177/95
f 126/170/96 131/177/96 130/176/96
f 128/173/97 134/180/97 132/178/97
f 130/176/98 136/182/98 134/180/98
f 78/114/99 134/180/99 75/111/99
f 132/178/100 82/118/100 115/154/100
usemtl Material.016
f 43/63/101 36/50/101 35/47/101
f 60/84/62 59/83/62 74/110/62
f 77/113/102 79/115/102 75/111/102
f 77/113/103 76/112/103 81/117/103
f 81/117/104 83/119/104 87/125/104
f 81/117/105 87/125/105 79/115/105
f 85/121/106 91/129/106 80/116/106
f 91/129/107 88/126/107 83/119/107
f 88/126/108 89/127/108 83/119/108
f 85/121/109 86/122/109 96/134/109
f 87/125/110 90/128/110 84/120/110
f 88/126/111 91/129/111 94/132/111
f 92/130/112 94/132/112 97/135/112
f 94/132/113 96/134/113 98/136/113
f 97/135/114 98/136/114 101/139/114
f 98/136/115 96/134/115 104/142/115
f 96/134/116 86/123/116 103/141/116
f 101/139/117 104/142/117 105/143/117
f 105/143/118 108/146/118 106/144/118
f 108/146/119 109/147/119 106/144/119
f 104/142/120 103/141/120 112/150/120
f 105/143/121 104/142/121 107/145/121
f 112/150/122 113/151/122 107/145/122
f 86/123/123 119/158/123 112/150/123
f 119/158/124 117/156/124 113/151/124
f 119/158/125 120/159/125 117/156/125
f 129/174/126 124/167/126 119/158/126
f 124/166/127 133/179/127 127/171/127
f 124/166/128 129/175/128 133/179/128
f 133/179/129 131/177/129 127/171/129
f 133/179/130 135/181/130 131/177/130
f 129/175/131 85/121/131 80/116/131
f 80/116/132 76/112/132 135/181/132
f 135/181/133 76/112/133 77/113/133
f 66/96/134 38/53/134 35/48/134 67/99/134
f 60/85/135 54/77/135 45/67/135 73/109/135
f 56/80/136 73/108/136 45/68/136 50/73/136
f 39/55/62 40/58/62 54/78/62
f 72/106/137 44/65/137 43/64/137 69/103/137
f 63/91/138 39/56/138 42/61/138 62/88/138
f 59/83/139 46/69/139 49/72/139 71/105/139
f 58/82/140 71/105/140 49/72/140 52/75/140
f 70/104/141 48/71/141 47/70/141 74/110/141
f 58/82/59 55/79/59 56/80/59 57/81/59
f 57/81/59 56/80/59 61/86/59 62/89/59
f 60/84/62 69/102/62 59/83/62
f 62/88/60 61/87/60 64/93/60 63/91/60
f 68/101/66 65/94/66 66/96/66 67/99/66
f 58/82/59 66/97/59 65/95/59 55/79/59
f 71/105/59 58/82/59 57/81/59 70/104/59
f 72/107/59 73/108/59 56/80/59 55/79/59
f 71/105/67 70/104/67 74/110/67 59/83/67
f 73/109/61 72/106/61 69/103/61 60/85/61
f 55/79/142 53/76/142 44/66/142 72/107/142
f 57/81/143 62/89/143 42/62/143 51/74/143
f 57/81/136 51/74/136 48/71/136 70/104/136
f 58/82/144 52/75/144 38/54/144 66/97/144
f 83/119/145 76/112/145 80/116/145 91/129/145
f 79/115/146 77/113/146 81/117/146
f 110/148/147 108/146/147 107/145/147 113/151/147
f 81/117/148 76/112/148 83/119/148
f 87/125/149 83/119/149 89/127/149
f 85/121/150 96/134/150 91/129/150
f 90/128/151 87/125/151 89/127/151
f 90/128/152 89/127/152 92/130/152
f 89/127/153 88/126/153 94/132/153
f 92/130/154 89/127/154 94/132/154
f 93/131/155 90/128/155 92/130/155
f 92/130/156 97/135/156 99/137/156
f 94/132/157 91/129/157 96/134/157
f 97/135/158 94/132/158 98/136/158
f 97/135/159 101/139/159 99/137/159
f 101/139/160 98/136/160 104/142/160
f 104/142/161 96/134/161 103/141/161
f 101/139/162 105/143/162 106/144/162
f 108/146/163 105/143/163 107/145/163
f 104/142/164 112/150/164 107/145/164
f 109/147/165 108/146/165 110/148/165
f 103/141/166 86/123/166 112/150/166
f 112/150/167 119/158/167 113/151/167
f 86/123/168 129/174/168 119/158/168
f 119/158/169 124/167/169 120/159/169
f 136/182/170 131/177/170 135/181/170
f 129/175/171 86/124/171 85/121/171
f 133/179/172 129/175/172 80/116/172
f 133/179/173 80/116/173 135/181/173
f 136/182/174 135/181/174 77/113/174
f 136/182/175 77/113/175 75/111/175
