# Blender 3.3.1
# www.blender.org
mtllib stone.mtl
o Cube
v -1.375276 0.031888 1.172012
v 1.413379 1.210511 1.662187
v 1.028985 2.418187 1.203802
v -1.928243 1.327689 1.068751
v -1.632853 0.679610 1.428636
v -1.478110 1.377548 1.696166
v 0.653544 3.146118 -0.832863
v 0.712691 3.131312 0.294723
v -1.004829 3.283169 -0.841292
v 1.007256 0.057069 1.168234
v 0.988741 0.029827 -1.161336
v -1.354797 2.510114 1.142660
v -0.995725 3.328286 0.078791
v 1.461681 1.187240 -1.206768
v 1.167146 2.111093 -1.256677
v 1.118174 0.393597 -1.326939
v -1.375276 0.031888 -0.083408
v -1.563278 1.836404 -1.553136
v -1.110837 0.075115 -1.217602
v -0.222979 1.564961 -1.639880
vn -0.7759 0.3432 0.5294
vn 0.2556 0.0322 -0.9662
vn -0.0500 -0.2447 -0.9683
vn -0.8100 -0.0445 0.5847
vn -0.0026 -0.3763 0.9265
vn 0.9049 0.4255 -0.0147
vn 0.0148 0.3982 0.9172
vn -0.9183 0.3939 -0.0407
vn 0.0999 0.9948 -0.0181
vn 0.0106 -0.9999 -0.0000
vn 0.9406 -0.3391 0.0186
vn 0.9517 0.3066 0.0143
vn 0.9255 -0.3786 -0.0099
vn -0.9200 -0.3917 0.0111
vn -0.9001 0.4346 0.0305
vn -0.0031 -1.0000 -0.0048
vn -0.9458 -0.2586 -0.1965
vn 0.0491 0.4293 -0.9018
vn 0.0153 -0.4188 -0.9080
vn 0.0142 0.7897 0.6133
vt 0.375000 1.000000
vt 0.125000 0.750000
vt 0.375000 0.000000
vt 0.461938 0.756558
vt 0.550707 0.750212
vt 0.481897 0.120419
vt 0.475460 0.045402
vt 0.422861 1.000000
vt 0.422861 0.000000
vt 0.474499 0.968966
vt 0.605616 0.507969
vt 0.604022 0.668021
vt 0.610337 0.256963
vt 0.386093 0.755734
vt 0.378736 0.748377
vt 0.372659 0.507790
vt 0.375000 0.471072
vt 0.557896 0.522608
vt 0.557896 0.933547
vt 0.618248 0.110543
vt 0.460371 0.535262
vt 0.526254 0.512211
vt 0.407713 0.503897
vt 0.411566 0.465994
vt 0.125000 0.617990
vt 0.375000 0.132010
vt 0.507576 0.261205
vt 0.156264 0.510279
vt 0.252210 0.398890
vt 0.377745 0.294420
vt 0.488282 0.376430
s 0
usemtl Material
f 12/19/1 4/6/1 6/10/1
f 15/22/2 14/21/2 16/23/2 20/31/2
f 19/29/3 18/27/3 20/31/3 16/23/3
f 6/10/4 4/7/4 5/9/4
f 1/1/5 10/14/5 2/4/5 6/10/5 5/8/5
f 3/5/6 15/22/6 7/11/6 8/12/6
f 3/5/7 12/19/7 6/10/7 2/4/7
f 4/7/8 13/20/8 9/13/8 18/27/8
f 9/13/9 13/20/9 8/12/9 7/11/9
f 1/2/10 17/25/10 10/15/10
f 14/21/11 2/4/11 10/15/11
f 2/4/12 14/21/12 15/22/12 3/5/12
f 11/16/13 16/23/13 14/21/13 10/15/13
f 4/7/14 17/26/14 1/3/14 5/9/14
f 12/18/15 13/20/15 4/7/15
f 17/25/16 19/28/16 11/16/16 10/15/16
f 17/26/17 4/7/17 18/27/17 19/29/17
f 9/13/18 7/11/18 15/22/18 20/31/18 18/27/18
f 11/17/19 19/30/19 16/24/19
f 8/12/20 13/20/20 12/19/20 3/5/20
